<?xml version="1.0" encoding="UTF-8"?><svg id="a" xmlns="http://www.w3.org/2000/svg" viewBox="0 0 166.81 155.81"><defs><style>.c{fill:#80aaff;}.c,.d,.e,.f,.g,.h{stroke-width:0px;}.d{fill:#3364ff;}.e{fill:#fff;}.f{fill:#37f;}.g{fill:#336dff;}.h{fill:#335aff;}</style></defs><path class="f" d="m135.8,79.41c.53,33.15-20.25,53.91-53.4,53.4-33.15.51-53.91-20.25-53.4-53.4-.51-33.15,20.25-53.91,53.4-53.4,33.15-.51,53.91,20.25,53.4,53.4Z"/><path class="g" d="m135.65,85.11c-1.62-23.6-17.75-38.13-42.57-37.74-26.51-.43-43.14,16.21-42.72,42.72-.41,24.82,14.14,40.94,37.72,42.57,27.96-1.71,45.86-19.61,47.57-47.54h0Z"/><path class="d" d="m134.93,91.71c-3.1-14.44-14.5-23.24-31.16-22.98-19.89-.32-32.36,12.15-32.04,32.04-.26,16.66,8.54,28.07,22.96,31.16,22.02-3.59,36.65-18.22,40.24-40.22Z"/><path class="c" d="m61.65,72.17l-16.08,24.97c-1.27,1.99-.7,4.63,1.29,5.9.69.44,1.48.68,2.3.68h32.17c2.36,0,4.27-1.92,4.26-4.28,0-.82-.24-1.61-.68-2.3l-16.08-24.99c-1.29-1.98-3.93-2.54-5.91-1.25-.51.33-.94.76-1.27,1.27Z"/><path class="h" d="m133.07,99.61c-3.44-6.15-9.97-9.65-18.62-9.53-13.26-.21-21.57,8.09-21.36,21.36-.15,8.65,3.37,15.19,9.5,18.62,14.68-4.31,26.16-15.78,30.48-30.46h0Z"/><path class="e" d="m88.62,60.72l-23.49,36.42c-1.27,1.99-.7,4.63,1.29,5.9.69.44,1.48.68,2.3.68h46.99c2.36,0,4.27-1.92,4.26-4.28,0-.82-.24-1.61-.68-2.3l-23.49-36.42c-1.28-1.98-3.92-2.55-5.91-1.27-.51.33-.94.76-1.27,1.27Z"/><path class="e" d="m60.22,56.72c0,4.13,4.55,7.2,8.91,4.46,1.34-.84,2.09-2.36,2.09-3.94v-.75c0-1.89-.98-3.71-2.67-4.57-4.17-2.13-8.33.84-8.33,4.79h0Z"/></svg>